<?xml version="1.0" encoding="UTF-8"?>
<svg id="Ebene_2" data-name="Ebene 2" xmlns="http://www.w3.org/2000/svg" viewBox="0 0 993.74 198.42">
  <defs>
    <style>
      .cls-1 {
        fill: #fff;
      }
    </style>
  </defs>
  <g id="Layer_2" data-name="Layer 2">
    <g id="logo-seo-halle">
      <g>
        <g>
          <path class="cls-1" d="M290.22,48.99l-19.45,17.16c-6.83-9.5-13.78-14.25-20.86-14.25-3.45,0-6.26.92-8.46,2.77-2.19,1.84-3.29,3.92-3.29,6.23s.78,4.5,2.35,6.57c2.13,2.75,8.55,8.66,19.26,17.72,10.02,8.38,16.1,13.66,18.23,15.85,5.32,5.38,9.09,10.52,11.32,15.43,2.22,4.91,3.33,10.27,3.33,16.08,0,11.32-3.91,20.67-11.74,28.04-7.82,7.38-18.02,11.06-30.6,11.06-9.83,0-18.39-2.41-25.68-7.22s-13.54-12.38-18.73-22.69l22.07-13.32c6.64,12.19,14.28,18.29,22.92,18.29,4.51,0,8.29-1.32,11.36-3.94,3.07-2.63,4.61-5.66,4.61-9.1,0-3.12-1.16-6.25-3.48-9.38s-7.42-7.9-15.31-14.34c-15.03-12.26-24.74-21.71-29.12-28.37-4.38-6.66-6.57-13.3-6.57-19.93,0-9.56,3.65-17.77,10.94-24.62,7.29-6.84,16.29-10.27,27-10.27,6.88,0,13.44,1.6,19.67,4.78,6.23,3.19,12.97,9,20.23,17.44h0Z"/>
          <path class="cls-1" d="M296.77,30.24h75.3v25.69h-49.23v24.95h49.23v25.23h-49.23v36.29h49.23v25.79h-75.3V30.24h0Z"/>
          <path class="cls-1" d="M447.27,26.77c19.52,0,36.3,7.07,50.35,21.2,14.05,14.13,21.06,31.36,21.06,51.67s-6.93,37.17-20.79,51.11c-13.86,13.95-30.67,20.91-50.43,20.91s-37.92-7.16-51.61-21.48c-13.7-14.32-20.55-31.32-20.55-51.02,0-13.19,3.19-25.32,9.57-36.38,6.38-11.07,15.15-19.84,26.32-26.31,11.16-6.47,23.19-9.71,36.08-9.71h0ZM446.99,52.46c-12.77,0-23.5,4.44-32.2,13.32-8.7,8.88-13.05,20.16-13.05,33.85,0,15.25,5.48,27.33,16.43,36.2,8.51,6.94,18.27,10.41,29.29,10.41,12.45,0,23.06-4.5,31.82-13.51,8.77-9,13.14-20.1,13.14-33.29s-4.41-24.24-13.24-33.34c-8.82-9.1-19.55-13.65-32.19-13.65h0Z"/>
        </g>
        <g>
          <path class="cls-1" d="M534.17,30.24h26.64v52.05h46.04V30.24h26.54v137.95h-26.54v-60.49h-46.04v60.49h-26.64V30.24Z"/>
          <path class="cls-1" d="M692.58,30.24h26.63l53.06,137.95h-27.3l-10.79-28.42h-56.29l-11.22,28.42h-27.29l53.2-137.95h0ZM706.06,66.81l-18.5,47.36h36.91l-18.4-47.36h0Z"/>
          <path class="cls-1" d="M778.17,30.24h26.25v112.91h38.26v25.04h-64.52V30.24h.01Z"/>
          <path class="cls-1" d="M848.26,30.24h26.25v112.91h38.26v25.04h-64.52V30.24h.01Z"/>
          <path class="cls-1" d="M918.44,30.24h75.3v25.69h-49.23v24.95h49.23v25.23h-49.23v36.29h49.23v25.79h-75.3V30.24Z"/>
        </g>
        <g>
          <path class="cls-1" d="M167.51,29.03C148.28,9.68,125.3,0,98.56,0c-17.65,0-34.12,4.43-49.4,13.29-15.3,8.87-27.32,20.88-36.05,36.03C4.37,64.47,0,81.09,0,99.15c0,26.96,9.38,50.26,28.14,69.86,18.77,19.61,42.32,29.41,70.69,29.41s50.09-9.54,69.07-28.63c18.97-19.1,28.47-42.43,28.47-70s-9.62-51.41-28.85-70.76h0ZM158.83,160.62c-16.51,16.61-36.54,24.91-60.09,24.91s-45.18-8.53-61.51-25.59c-16.32-17.05-24.48-37.31-24.48-60.78,0-15.71,3.8-30.17,11.4-43.35,7.6-13.19,18.06-23.63,31.36-31.35,13.3-7.7,27.63-11.56,42.99-11.56,23.25,0,43.26,8.42,59.99,25.25,16.73,16.83,25.1,37.35,25.1,61.56s-8.25,44.3-24.76,60.91h0Z"/>
          <g>
            <g>
              <polygon class="cls-1" points="75.39 166.74 97.97 99.42 30.65 122.01 48.47 139.83 25.84 155.66 41.73 171.55 57.57 148.92 75.39 166.74"/>
              <polygon class="cls-1" points="120.97 31.68 98.39 99 165.71 76.42 147.89 58.6 170.52 42.76 154.63 26.87 138.8 49.5 120.97 31.68"/>
            </g>
            <g>
              <polygon class="cls-1" points="30.65 76.42 97.97 99 75.39 31.68 57.57 49.5 41.73 26.87 25.84 42.76 48.47 58.6 30.65 76.42"/>
              <polygon class="cls-1" points="165.71 122.01 98.39 99.42 120.97 166.74 138.8 148.92 154.63 171.55 170.52 155.66 147.89 139.83 165.71 122.01"/>
            </g>
          </g>
        </g>
      </g>
    </g>
  </g>
</svg>